<?xml version="1.0" encoding="UTF-8"?><svg width="24px" height="24px" stroke-width="1.3" viewBox="0 0 24 24" fill="none" xmlns="http://www.w3.org/2000/svg" color="#000000"><path d="M4 21.4V2.6a.6.6 0 01.6-.6h11.652a.6.6 0 01.424.176l3.148 3.148A.6.6 0 0120 5.75V21.4a.6.6 0 01-.6.6H4.6a.6.6 0 01-.6-.6z" stroke="#000000" stroke-width="1.3" stroke-linecap="round" stroke-linejoin="round"></path><path d="M16 5.4V2.354a.354.354 0 01.604-.25l3.292 3.292a.353.353 0 01-.25.604H16.6a.6.6 0 01-.6-.6z" fill="#000000" stroke="#000000" stroke-width="1.3" stroke-linecap="round" stroke-linejoin="round"></path><path d="M8 10h8M8 18h8M8 14h4" stroke="#000000" stroke-width="1.3" stroke-linecap="round" stroke-linejoin="round"></path></svg>
